# xmcd
# 
# Track frame offsets:
#     150
#     17237
#     32290
#     49135
#     66625
#     82732
#     99421
#     118816
#     139812
#     159659
# 
# Disc length: 2347
# 
# Revision: 1
# Processed by: cddbd v1.5.2PL0 Copyright (c) Steve Scherf et al.
# Submitted via: BonkEnc v1.0.8
# 
DISCID=8009290a
DTITLE=LeAnn Rimes - I Need You
DYEAR=2001
DGENRE=Pop
TTITLE0=I Need You
TTITLE1=But I Do Love You
TTITLE2=You Are
TTITLE3=Soon
TTITLE4=Can't Fight The Moonlight
TTITLE5=Love Must Be Telling Me Something
TTITLE6=Written In The Stars (Duet with Elton John)
TTITLE7=One Of These Days
TTITLE8=I Believe In You
TTITLE9=Together, Forever, Always
EXTD=YEAR: 2001
EXTT0=
EXTT1=
EXTT2=
EXTT3=
EXTT4=
EXTT5=
EXTT6=
EXTT7=
EXTT8=
EXTT9=
PLAYORDER=
